<?xml version="1.0" encoding="UTF-8" standalone="no"?>
<svg
   version="1.1"
   viewBox="0.0 0.0 567.0 460.0"
   fill="none"
   stroke="none"
   stroke-linecap="square"
   stroke-miterlimit="10"
   width="567"
   height="460"
   id="svg39"
   sodipodi:docname="Toothbrushes.svg"
   inkscape:export-filename="Toothbrushes.jpg"
   inkscape:export-xdpi="300"
   inkscape:export-ydpi="300"
   inkscape:version="1.2.1 (9c6d41e, 2022-07-14)"
   xmlns:inkscape="http://www.inkscape.org/namespaces/inkscape"
   xmlns:sodipodi="http://sodipodi.sourceforge.net/DTD/sodipodi-0.dtd"
   xmlns="http://www.w3.org/2000/svg"
   xmlns:svg="http://www.w3.org/2000/svg">
  <defs
     id="defs43" />
  <sodipodi:namedview
     id="namedview41"
     pagecolor="#ffffff"
     bordercolor="#000000"
     borderopacity="0.25"
     inkscape:showpageshadow="2"
     inkscape:pageopacity="0.0"
     inkscape:pagecheckerboard="0"
     inkscape:deskcolor="#d1d1d1"
     showgrid="false"
     inkscape:zoom="1.2604974"
     inkscape:cx="341.53185"
     inkscape:cy="216.58117"
     inkscape:window-width="1512"
     inkscape:window-height="844"
     inkscape:window-x="0"
     inkscape:window-y="38"
     inkscape:window-maximized="0"
     inkscape:current-layer="svg39" />
  <path
     fill="#ffffff"
     d="M0 0L567.0 0L567.0 460.0L0 460.0L0 0Z"
     fill-rule="nonzero"
     id="path2" />
  <clipPath
     id="id_0">
    <path
       d="M136.2 90.333336L507.5 90.333336L507.5 428.0L136.2 428.0L136.2 90.333336Z"
       clip-rule="nonzero"
       id="path4" />
  </clipPath>
  <path
     stroke="#000000"
     stroke-width="2.0"
     stroke-linecap="butt"
     stroke-opacity="0.0"
     clip-path="url(#id_0)"
     d="M136.0 378.0L136.0 285.0L497.0 285.0C498.10458 285.0 499.0 285.89542 499.0 287.0L499.0 376.0C499.0 377.10458 498.10458 378.0 497.0 378.0Z"
     fill-rule="nonzero"
     id="path7" />
  <path
     fill="#f7c6c2"
     clip-path="url(#id_0)"
     d="M136.0 378.0L136.0 285.0L497.0 285.0C498.10458 285.0 499.0 285.89542 499.0 287.0L499.0 376.0C499.0 377.10458 498.10458 378.0 497.0 378.0Z"
     fill-rule="nonzero"
     id="path9" />
  <path
     stroke="#000000"
     stroke-width="2.0"
     stroke-linecap="butt"
     stroke-opacity="0.0"
     clip-path="url(#id_0)"
     d="M136.0 234.0L136.0 141.0L332.0 141.0C333.10458 141.0 334.0 141.89543 334.0 143.0L334.0 232.0C334.0 233.10457 333.10458 234.0 332.0 234.0Z"
     fill-rule="nonzero"
     id="path11" />
  <path
     fill="#e34234"
     clip-path="url(#id_0)"
     d="M136.0 234.0L136.0 141.0L332.0 141.0C333.10458 141.0 334.0 141.89543 334.0 143.0L334.0 232.0C334.0 233.10457 333.10458 234.0 332.0 234.0Z"
     fill-rule="nonzero"
     id="path13" />
  <path
     fill="#f7c6c2"
     d="M525.5794 335.98438L525.5794 337.5L517.0638 337.5Q517.04816 336.92188 517.2513 336.40625Q517.5794 335.53125 518.28253 334.6875Q519.0013 333.84375 520.36066 332.73438Q522.4544 331.01562 523.1888 330.01562Q523.9388 329.0 523.9388 328.10938Q523.9388 327.15625 523.2669 326.51562Q522.59503 325.875 521.5169 325.875Q520.36066 325.875 519.67316 326.5625Q519.0013 327.25 518.98566 328.45312L517.36066 328.28125Q517.53253 326.46875 518.61066 325.51562Q519.7044 324.5625 521.54816 324.5625Q523.3919 324.5625 524.47003 325.59375Q525.5638 326.625 525.5638 328.14062Q525.5638 328.90625 525.23566 329.65625Q524.92316 330.40625 524.1888 331.23438Q523.4544 332.0625 521.7513 333.5Q520.3294 334.70312 519.92316 335.125Q519.5169 335.54688 519.2669 335.98438L525.5794 335.98438ZM527.5013 334.51562L529.0169 334.375Q529.22003 335.45312 529.7513 335.9375Q530.29816 336.42188 531.15753 336.42188Q531.8919 336.42188 532.4388 336.09375Q532.98566 335.75 533.3294 335.20312Q533.6888 334.64062 533.92316 333.6875Q534.15753 332.73438 534.15753 331.75Q534.15753 331.64062 534.15753 331.4375Q533.67316 332.1875 532.84503 332.65625Q532.03253 333.125 531.0794 333.125Q529.48566 333.125 528.3763 331.96875Q527.2669 330.8125 527.2669 328.90625Q527.2669 326.95312 528.42316 325.76562Q529.5794 324.5625 531.3138 324.5625Q532.5794 324.5625 533.61066 325.25Q534.65753 325.92188 535.1888 327.17188Q535.73566 328.42188 535.73566 330.79688Q535.73566 333.26562 535.1888 334.73438Q534.65753 336.1875 533.59503 336.95312Q532.54816 337.71875 531.1263 337.71875Q529.61066 337.71875 528.6419 336.89062Q527.6888 336.04688 527.5013 334.51562ZM533.98566 328.82812Q533.98566 327.46875 533.2513 326.67188Q532.53253 325.875 531.5169 325.875Q530.4544 325.875 529.67316 326.73438Q528.8919 327.59375 528.8919 328.96875Q528.8919 330.20312 529.6263 330.96875Q530.3763 331.73438 531.47003 331.73438Q532.5638 331.73438 533.2669 330.96875Q533.98566 330.20312 533.98566 328.82812Z"
     fill-rule="nonzero"
     id="path15" />
  <path
     stroke="#ffffff"
     stroke-width="3.0"
     stroke-linejoin="round"
     stroke-linecap="round"
     d="M358.92978 193.5L357.35165 193.5L357.35165 183.42188Q356.77353 183.96875 355.85165 184.51562Q354.92978 185.04688 354.17978 185.32812L354.17978 183.79688Q355.5079 183.17188 356.5079 182.28125Q357.5079 181.39062 357.91415 180.5625L358.92978 180.5625L358.92978 193.5ZM371.17978 183.76562L369.61728 183.89062Q369.39853 182.96875 369.0079 182.54688Q368.36728 181.85938 367.42978 181.85938Q366.67978 181.85938 366.10165 182.28125Q365.35165 182.82812 364.91415 183.875Q364.49228 184.92188 364.47665 186.85938Q365.05478 185.98438 365.86728 185.5625Q366.6954 185.14062 367.60165 185.14062Q369.1954 185.14062 370.30478 186.3125Q371.41415 187.46875 371.41415 189.3125Q371.41415 190.53125 370.8829 191.57812Q370.36728 192.60938 369.4454 193.17188Q368.53915 193.71875 367.3829 193.71875Q365.39853 193.71875 364.14853 192.26562Q362.89853 190.8125 362.89853 187.46875Q362.89853 183.73438 364.28915 182.03125Q365.49228 180.5625 367.52353 180.5625Q369.05478 180.5625 370.02353 181.42188Q370.99228 182.26562 371.17978 183.76562ZM364.72665 189.32812Q364.72665 190.14062 365.0704 190.89062Q365.41415 191.64062 366.03915 192.03125Q366.66415 192.42188 367.35165 192.42188Q368.35165 192.42188 369.0704 191.60938Q369.78915 190.79688 369.78915 189.40625Q369.78915 188.07812 369.0704 187.3125Q368.36728 186.53125 367.28915 186.53125Q366.21103 186.53125 365.46103 187.3125Q364.72665 188.07812 364.72665 189.32812Z"
     fill-rule="nonzero"
     id="path17" />
  <path
     fill="#e34234"
     d="M358.92978 193.5L357.35165 193.5L357.35165 183.42188Q356.77353 183.96875 355.85165 184.51562Q354.92978 185.04688 354.17978 185.32812L354.17978 183.79688Q355.5079 183.17188 356.5079 182.28125Q357.5079 181.39062 357.91415 180.5625L358.92978 180.5625L358.92978 193.5ZM371.17978 183.76562L369.61728 183.89062Q369.39853 182.96875 369.0079 182.54688Q368.36728 181.85938 367.42978 181.85938Q366.67978 181.85938 366.10165 182.28125Q365.35165 182.82812 364.91415 183.875Q364.49228 184.92188 364.47665 186.85938Q365.05478 185.98438 365.86728 185.5625Q366.6954 185.14062 367.60165 185.14062Q369.1954 185.14062 370.30478 186.3125Q371.41415 187.46875 371.41415 189.3125Q371.41415 190.53125 370.8829 191.57812Q370.36728 192.60938 369.4454 193.17188Q368.53915 193.71875 367.3829 193.71875Q365.39853 193.71875 364.14853 192.26562Q362.89853 190.8125 362.89853 187.46875Q362.89853 183.73438 364.28915 182.03125Q365.49228 180.5625 367.52353 180.5625Q369.05478 180.5625 370.02353 181.42188Q370.99228 182.26562 371.17978 183.76562ZM364.72665 189.32812Q364.72665 190.14062 365.0704 190.89062Q365.41415 191.64062 366.03915 192.03125Q366.66415 192.42188 367.35165 192.42188Q368.35165 192.42188 369.0704 191.60938Q369.78915 190.79688 369.78915 189.40625Q369.78915 188.07812 369.0704 187.3125Q368.36728 186.53125 367.28915 186.53125Q366.21103 186.53125 365.46103 187.3125Q364.72665 188.07812 364.72665 189.32812Z"
     fill-rule="nonzero"
     id="path19" />
  <path
     fill="#999999"
     d="M77.0125 333.37003L78.62187 333.2294Q78.73125 334.19815 79.1375 334.82315Q79.55937 335.43253 80.43437 335.82315Q81.325 336.19815 82.41875 336.19815Q83.40312 336.19815 84.1375 335.9169Q84.8875 335.62003 85.24687 335.12003Q85.62187 334.6044 85.62187 334.01065Q85.62187 333.40128 85.2625 332.94815Q84.91875 332.49503 84.10625 332.19815Q83.59062 331.99503 81.80937 331.57315Q80.04375 331.13565 79.325 330.76065Q78.40312 330.27628 77.95 329.55753Q77.49687 328.83878 77.49687 327.96378Q77.49687 326.9794 78.04375 326.13565Q78.60625 325.2919 79.66875 324.8544Q80.73125 324.40128 82.04375 324.40128Q83.46562 324.40128 84.55937 324.87003Q85.65312 325.32315 86.24687 326.2294Q86.84062 327.12003 86.87187 328.26065L85.24687 328.38565Q85.10625 327.15128 84.34062 326.52628Q83.59062 325.90128 82.10625 325.90128Q80.55937 325.90128 79.84062 326.4794Q79.1375 327.0419 79.1375 327.83878Q79.1375 328.5419 79.65312 328.9794Q80.1375 329.43253 82.21562 329.90128Q84.29375 330.37003 85.075 330.7294Q86.2 331.24503 86.73125 332.0419Q87.2625 332.83878 87.2625 333.87003Q87.2625 334.90128 86.66875 335.80753Q86.09062 336.71378 84.98125 337.2294Q83.8875 337.7294 82.49687 337.7294Q80.74687 337.7294 79.55937 337.2294Q78.3875 336.71378 77.71562 335.69815Q77.04375 334.6669 77.0125 333.37003ZM89.3875 341.08878L89.3875 328.18253L90.825 328.18253L90.825 329.38565Q91.34062 328.68253 91.98125 328.32315Q92.62187 327.96378 93.52812 327.96378Q94.73125 327.96378 95.6375 328.58878Q96.55937 329.19815 97.02812 330.32315Q97.49687 331.43253 97.49687 332.77628Q97.49687 334.19815 96.98125 335.3544Q96.46562 336.49503 95.48125 337.12003Q94.49687 337.7294 93.41875 337.7294Q92.6375 337.7294 91.99687 337.40128Q91.37187 337.05753 90.96562 336.5419L90.96562 341.08878L89.3875 341.08878ZM90.825 332.90128Q90.825 334.69815 91.54375 335.55753Q92.27812 336.4169 93.30937 336.4169Q94.37187 336.4169 95.12187 335.52628Q95.87187 334.63565 95.87187 332.76065Q95.87187 330.9794 95.1375 330.08878Q94.40312 329.19815 93.3875 329.19815Q92.37187 329.19815 91.59062 330.15128Q90.825 331.08878 90.825 332.90128ZM105.48125 336.3544Q104.60625 337.1044 103.77812 337.4169Q102.96562 337.7294 102.04375 337.7294Q100.49687 337.7294 99.66875 336.9794Q98.85625 336.21378 98.85625 335.0419Q98.85625 334.37003 99.16875 333.80753Q99.48125 333.2294 99.98125 332.88565Q100.48125 332.5419 101.12187 332.37003Q101.59062 332.24503 102.52812 332.13565Q104.43437 331.90128 105.34062 331.58878Q105.35625 331.26065 105.35625 331.1669Q105.35625 330.21378 104.90312 329.80753Q104.29375 329.27628 103.10625 329.27628Q101.98125 329.27628 101.45 329.6669Q100.91875 330.05753 100.66875 331.05753L99.12187 330.83878Q99.34062 329.83878 99.80937 329.2294Q100.29375 328.62003 101.2 328.2919Q102.12187 327.96378 103.34062 327.96378Q104.52812 327.96378 105.27812 328.24503Q106.02812 328.52628 106.37187 328.96378Q106.73125 329.38565 106.87187 330.02628Q106.95 330.43253 106.95 331.49503L106.95 333.6044Q106.95 335.80753 107.04375 336.40128Q107.15312 336.9794 107.45 337.51065L105.79375 337.51065Q105.54375 337.01065 105.48125 336.3544ZM105.34062 332.82315Q104.48125 333.18253 102.7625 333.4169Q101.79375 333.55753 101.3875 333.74503Q100.98125 333.9169 100.7625 334.26065Q100.54375 334.58878 100.54375 335.01065Q100.54375 335.63565 101.0125 336.05753Q101.49687 336.4794 102.41875 336.4794Q103.34062 336.4794 104.04375 336.08878Q104.7625 335.68253 105.09062 334.99503Q105.34062 334.44815 105.34062 333.40128L105.34062 332.82315ZM115.48125 334.08878L117.02812 334.2919Q116.77812 335.90128 115.73125 336.82315Q114.68437 337.7294 113.15312 337.7294Q111.23125 337.7294 110.05937 336.4794Q108.90312 335.21378 108.90312 332.88565Q108.90312 331.37003 109.40312 330.24503Q109.90312 329.1044 110.91875 328.5419Q111.95 327.96378 113.15312 327.96378Q114.68437 327.96378 115.6375 328.74503Q116.60625 329.51065 116.8875 330.9169L115.34062 331.15128Q115.12187 330.21378 114.55937 329.74503Q114.0125 329.26065 113.21562 329.26065Q112.02812 329.26065 111.27812 330.12003Q110.52812 330.9794 110.52812 332.83878Q110.52812 334.71378 111.24687 335.57315Q111.96562 336.4169 113.1375 336.4169Q114.05937 336.4169 114.68437 335.8544Q115.30937 335.27628 115.48125 334.08878ZM124.77812 334.51065L126.41875 334.71378Q126.02812 336.13565 124.98125 336.93253Q123.93437 337.7294 122.30937 337.7294Q120.2625 337.7294 119.05937 336.46378Q117.85625 335.19815 117.85625 332.9169Q117.85625 330.57315 119.05937 329.27628Q120.27812 327.96378 122.21562 327.96378Q124.09062 327.96378 125.27812 329.24503Q126.46562 330.51065 126.46562 332.82315Q126.46562 332.96378 126.45 333.24503L119.49687 333.24503Q119.575 334.7919 120.35625 335.6044Q121.15312 336.4169 122.30937 336.4169Q123.18437 336.4169 123.79375 335.96378Q124.41875 335.51065 124.77812 334.51065ZM119.575 331.94815L124.79375 331.94815Q124.68437 330.77628 124.2 330.18253Q123.43437 329.26065 122.23125 329.26065Q121.15312 329.26065 120.40312 329.99503Q119.66875 330.7294 119.575 331.94815Z"
     fill-rule="nonzero"
     id="path21" />
  <path
     fill="#999999"
     d="M112.04375 169.93207L113.74687 169.93207L113.74687 177.3852Q113.74687 179.3227 113.30937 180.46332Q112.87187 181.60394 111.71562 182.3227Q110.575 183.04144 108.71562 183.04144Q106.90312 183.04144 105.74687 182.41644Q104.60625 181.79144 104.10625 180.61957Q103.62187 179.43207 103.62187 177.3852L103.62187 169.93207L105.325 169.93207L105.325 177.36957Q105.325 179.05707 105.6375 179.85394Q105.95 180.6352 106.7 181.0727Q107.46562 181.5102 108.55937 181.5102Q110.45 181.5102 111.24687 180.65082Q112.04375 179.79144 112.04375 177.36957L112.04375 169.93207ZM116.0125 178.68207L117.62187 178.54144Q117.73125 179.5102 118.1375 180.1352Q118.55937 180.74457 119.43437 181.1352Q120.325 181.5102 121.41875 181.5102Q122.40312 181.5102 123.1375 181.22894Q123.8875 180.93207 124.24687 180.43207Q124.62187 179.91644 124.62187 179.3227Q124.62187 178.71332 124.2625 178.2602Q123.91875 177.80707 123.10625 177.5102Q122.59062 177.30707 120.80937 176.8852Q119.04375 176.4477 118.325 176.0727Q117.40312 175.58832 116.95 174.86957Q116.49687 174.15082 116.49687 173.27582Q116.49687 172.29144 117.04375 171.4477Q117.60625 170.60394 118.66875 170.16644Q119.73125 169.71332 121.04375 169.71332Q122.46562 169.71332 123.55937 170.18207Q124.65312 170.6352 125.24687 171.54144Q125.84062 172.43207 125.87187 173.5727L124.24687 173.6977Q124.10625 172.46332 123.34062 171.83832Q122.59062 171.21332 121.10625 171.21332Q119.55937 171.21332 118.84062 171.79144Q118.1375 172.35394 118.1375 173.15082Q118.1375 173.85394 118.65312 174.29144Q119.1375 174.74457 121.21562 175.21332Q123.29375 175.68207 124.075 176.04144Q125.2 176.55707 125.73125 177.35394Q126.2625 178.15082 126.2625 179.18207Q126.2625 180.21332 125.66875 181.11957Q125.09062 182.02582 123.98125 182.54144Q122.8875 183.04144 121.49687 183.04144Q119.74687 183.04144 118.55937 182.54144Q117.3875 182.02582 116.71562 181.0102Q116.04375 179.97894 116.0125 178.68207Z"
     fill-rule="nonzero"
     id="path23" />
  <path
     fill="#999999"
     d="M42.6375 204.8227L42.6375 191.93207L44.340626 191.93207L44.340626 197.22894L51.04375 197.22894L51.04375 191.93207L52.746876 191.93207L52.746876 204.8227L51.04375 204.8227L51.04375 198.74457L44.340626 198.74457L44.340626 204.8227L42.6375 204.8227ZM54.79375 200.15082Q54.79375 197.55707 56.246876 196.30707Q57.45 195.27582 59.16875 195.27582Q61.10625 195.27582 62.325 196.54144Q63.54375 197.80707 63.54375 200.02582Q63.54375 201.8227 62.996876 202.85394Q62.465626 203.8852 61.434376 204.46332Q60.403126 205.04144 59.16875 205.04144Q57.215626 205.04144 55.996876 203.79144Q54.79375 202.52582 54.79375 200.15082ZM56.41875 200.15082Q56.41875 201.9477 57.2 202.83832Q57.98125 203.72894 59.16875 203.72894Q60.35625 203.72894 61.1375 202.83832Q61.91875 201.93207 61.91875 200.10394Q61.91875 198.36957 61.121876 197.47894Q60.340626 196.58832 59.16875 196.58832Q57.98125 196.58832 57.2 197.47894Q56.41875 198.36957 56.41875 200.15082ZM71.49687 204.8227L71.49687 203.4477Q70.41875 205.04144 68.54375 205.04144Q67.71562 205.04144 66.99687 204.72894Q66.27812 204.40082 65.93437 203.93207Q65.59062 203.4477 65.45 202.74457Q65.35625 202.27582 65.35625 201.27582L65.35625 195.49457L66.93437 195.49457L66.93437 200.66644Q66.93437 201.90082 67.02812 202.33832Q67.18437 202.96332 67.66875 203.3227Q68.15312 203.66644 68.85625 203.66644Q69.575 203.66644 70.2 203.30707Q70.825 202.9477 71.075 202.3227Q71.34062 201.68207 71.34062 200.49457L71.34062 195.49457L72.91875 195.49457L72.91875 204.8227L71.49687 204.8227ZM74.74687 202.04144L76.325 201.79144Q76.45 202.72894 77.04375 203.22894Q77.65312 203.72894 78.73125 203.72894Q79.825 203.72894 80.35625 203.29144Q80.8875 202.83832 80.8875 202.24457Q80.8875 201.71332 80.41875 201.40082Q80.09062 201.1977 78.79375 200.86957Q77.05937 200.43207 76.3875 200.11957Q75.71562 199.79144 75.35625 199.22894Q75.0125 198.65082 75.0125 197.96332Q75.0125 197.33832 75.29375 196.80707Q75.59062 196.27582 76.075 195.93207Q76.45 195.65082 77.09062 195.46332Q77.73125 195.27582 78.45 195.27582Q79.55937 195.27582 80.3875 195.60394Q81.21562 195.91644 81.60625 196.46332Q82.0125 196.99457 82.15312 197.90082L80.60625 198.10394Q80.49687 197.3852 79.99687 196.97894Q79.49687 196.5727 78.575 196.5727Q77.48125 196.5727 77.0125 196.93207Q76.54375 197.29144 76.54375 197.77582Q76.54375 198.08832 76.74687 198.33832Q76.93437 198.58832 77.34062 198.7602Q77.59062 198.83832 78.74687 199.16644Q80.41875 199.60394 81.075 199.90082Q81.74687 200.18207 82.12187 200.72894Q82.5125 201.27582 82.5125 202.0727Q82.5125 202.86957 82.04375 203.5727Q81.59062 204.27582 80.71562 204.66644Q79.84062 205.04144 78.74687 205.04144Q76.91875 205.04144 75.96562 204.29144Q75.0125 203.52582 74.74687 202.04144ZM90.77812 201.8227L92.41875 202.02582Q92.02812 203.4477 90.98125 204.24457Q89.93437 205.04144 88.30937 205.04144Q86.2625 205.04144 85.05937 203.77582Q83.85625 202.5102 83.85625 200.22894Q83.85625 197.8852 85.05937 196.58832Q86.27812 195.27582 88.21562 195.27582Q90.09062 195.27582 91.27812 196.55707Q92.46562 197.8227 92.46562 200.1352Q92.46562 200.27582 92.45 200.55707L85.49687 200.55707Q85.575 202.10394 86.35625 202.91644Q87.15312 203.72894 88.30937 203.72894Q89.18437 203.72894 89.79375 203.27582Q90.41875 202.8227 90.77812 201.8227ZM85.575 199.2602L90.79375 199.2602Q90.68437 198.08832 90.2 197.49457Q89.43437 196.5727 88.23125 196.5727Q87.15312 196.5727 86.40312 197.30707Q85.66875 198.04144 85.575 199.2602ZM94.3875 204.8227L94.3875 191.93207L95.96562 191.93207L95.96562 196.55707Q97.075 195.27582 98.7625 195.27582Q99.79375 195.27582 100.55937 195.68207Q101.325 196.08832 101.65312 196.8227Q101.99687 197.54144 101.99687 198.90082L101.99687 204.8227L100.40312 204.8227L100.40312 198.90082Q100.40312 197.71332 99.8875 197.18207Q99.37187 196.6352 98.43437 196.6352Q97.73125 196.6352 97.10625 197.0102Q96.49687 197.36957 96.23125 197.99457Q95.96562 198.61957 95.96562 199.71332L95.96562 204.8227L94.3875 204.8227ZM103.79375 200.15082Q103.79375 197.55707 105.24687 196.30707Q106.45 195.27582 108.16875 195.27582Q110.10625 195.27582 111.325 196.54144Q112.54375 197.80707 112.54375 200.02582Q112.54375 201.8227 111.99687 202.85394Q111.46562 203.8852 110.43437 204.46332Q109.40312 205.04144 108.16875 205.04144Q106.21562 205.04144 104.99687 203.79144Q103.79375 202.52582 103.79375 200.15082ZM105.41875 200.15082Q105.41875 201.9477 106.2 202.83832Q106.98125 203.72894 108.16875 203.72894Q109.35625 203.72894 110.1375 202.83832Q110.91875 201.93207 110.91875 200.10394Q110.91875 198.36957 110.12187 197.47894Q109.34062 196.58832 108.16875 196.58832Q106.98125 196.58832 106.2 197.47894Q105.41875 198.36957 105.41875 200.15082ZM114.35625 204.8227L114.35625 191.93207L115.93437 191.93207L115.93437 204.8227L114.35625 204.8227ZM124.45 204.8227L124.45 203.65082Q123.55937 205.04144 121.825 205.04144Q120.71562 205.04144 119.77812 204.43207Q118.84062 203.80707 118.325 202.71332Q117.80937 201.60394 117.80937 200.16644Q117.80937 198.7602 118.27812 197.6352Q118.74687 196.49457 119.66875 195.8852Q120.60625 195.27582 121.7625 195.27582Q122.60625 195.27582 123.2625 195.6352Q123.91875 195.99457 124.34062 196.55707L124.34062 191.93207L125.90312 191.93207L125.90312 204.8227L124.45 204.8227ZM119.43437 200.16644Q119.43437 201.96332 120.18437 202.85394Q120.95 203.72894 121.98125 203.72894Q123.0125 203.72894 123.73125 202.8852Q124.46562 202.04144 124.46562 200.29144Q124.46562 198.3852 123.73125 197.49457Q122.99687 196.58832 121.91875 196.58832Q120.85625 196.58832 120.1375 197.4477Q119.43437 198.30707 119.43437 200.16644Z"
     fill-rule="nonzero"
     id="path25" />
  <path
     fill="#ffffff"
     d="M134.95 434.875Q134.95 434.125 135.10625 433.65625Q135.2625 433.1875 135.575 432.9375Q135.8875 432.6875 136.35625 432.6875Q136.7 432.6875 136.95 432.82812Q137.21562 432.96875 137.3875 433.23438Q137.55937 433.48438 137.65312 433.875Q137.74687 434.25 137.74687 434.875Q137.74687 435.64062 137.59062 436.10938Q137.43437 436.5625 137.12187 436.82812Q136.825 437.07812 136.35625 437.07812Q135.73125 437.07812 135.37187 436.625Q134.95 436.09375 134.95 434.875ZM135.49687 434.875Q135.49687 435.9375 135.73125 436.29688Q135.98125 436.64062 136.35625 436.64062Q136.71562 436.64062 136.96562 436.29688Q137.21562 435.9375 137.21562 434.875Q137.21562 433.82812 136.96562 433.48438Q136.71562 433.125 136.34062 433.125Q135.98125 433.125 135.7625 433.4375Q135.49687 433.82812 135.49687 434.875Z"
     fill-rule="nonzero"
     id="path27" />
  <path
     fill="#ffffff"
     d="M259.20105 437.0L258.6698 437.0L258.6698 433.64062Q258.4823 433.82812 258.1698 434.01562Q257.87292 434.1875 257.62292 434.28125L257.62292 433.76562Q258.06042 433.5625 258.38855 433.26562Q258.7323 432.96875 258.8573 432.6875L259.20105 432.6875L259.20105 437.0ZM260.21667 434.875Q260.21667 434.125 260.37292 433.65625Q260.52917 433.1875 260.84167 432.9375Q261.15417 432.6875 261.62292 432.6875Q261.96667 432.6875 262.21667 432.82812Q262.4823 432.96875 262.65417 433.23438Q262.82605 433.48438 262.9198 433.875Q263.01355 434.25 263.01355 434.875Q263.01355 435.64062 262.8573 436.10938Q262.70105 436.5625 262.38855 436.82812Q262.09167 437.07812 261.62292 437.07812Q260.99792 437.07812 260.63855 436.625Q260.21667 436.09375 260.21667 434.875ZM260.76355 434.875Q260.76355 435.9375 260.99792 436.29688Q261.24792 436.64062 261.62292 436.64062Q261.9823 436.64062 262.2323 436.29688Q262.4823 435.9375 262.4823 434.875Q262.4823 433.82812 262.2323 433.48438Q261.9823 433.125 261.6073 433.125Q261.24792 433.125 261.02917 433.4375Q260.76355 433.82812 260.76355 434.875Z"
     fill-rule="nonzero"
     id="path29" />
  <path
     fill="#ffffff"
     d="M383.74896 436.5L383.74896 437.0L380.92084 437.0Q380.9052 436.8125 380.98334 436.64062Q381.0927 436.34375 381.3271 436.0625Q381.56146 435.78125 382.0146 435.40625Q382.7177 434.84375 382.9521 434.51562Q383.2021 434.17188 383.2021 433.875Q383.2021 433.54688 382.98334 433.34375Q382.7646 433.125 382.4052 433.125Q382.0146 433.125 381.7802 433.35938Q381.56146 433.57812 381.56146 433.98438L381.0146 433.92188Q381.0771 433.32812 381.43646 433.01562Q381.79584 432.6875 382.4052 432.6875Q383.0302 432.6875 383.3896 433.03125Q383.74896 433.375 383.74896 433.875Q383.74896 434.14062 383.6396 434.39062Q383.5302 434.64062 383.2802 434.92188Q383.04584 435.1875 382.48334 435.67188Q381.99896 436.0625 381.85834 436.20312Q381.73334 436.34375 381.6552 436.5L383.74896 436.5ZM383.98334 434.875Q383.98334 434.125 384.1396 433.65625Q384.29584 433.1875 384.60834 432.9375Q384.92084 432.6875 385.3896 432.6875Q385.73334 432.6875 385.98334 432.82812Q386.24896 432.96875 386.42084 433.23438Q386.5927 433.48438 386.68646 433.875Q386.7802 434.25 386.7802 434.875Q386.7802 435.64062 386.62396 436.10938Q386.4677 436.5625 386.1552 436.82812Q385.85834 437.07812 385.3896 437.07812Q384.7646 437.07812 384.4052 436.625Q383.98334 436.09375 383.98334 434.875ZM384.5302 434.875Q384.5302 435.9375 384.7646 436.29688Q385.0146 436.64062 385.3896 436.64062Q385.74896 436.64062 385.99896 436.29688Q386.24896 435.9375 386.24896 434.875Q386.24896 433.82812 385.99896 433.48438Q385.74896 433.125 385.37396 433.125Q385.0146 433.125 384.79584 433.4375Q384.5302 433.82812 384.5302 434.875Z"
     fill-rule="nonzero"
     id="path31" />
  <path
     fill="#ffffff"
     d="M504.75 435.85938L505.28125 435.79688Q505.375 436.25 505.59375 436.45312Q505.8125 436.64062 506.125 436.64062Q506.5 436.64062 506.75 436.39062Q507.0 436.125 507.0 435.75Q507.0 435.375 506.76562 435.14062Q506.53125 434.90625 506.17188 434.90625Q506.01562 434.90625 505.79688 434.96875L505.84375 434.5Q505.90625 434.51562 505.9375 434.51562Q506.26562 434.51562 506.53125 434.34375Q506.8125 434.15625 506.8125 433.79688Q506.8125 433.5 506.60938 433.3125Q506.42188 433.125 506.10938 433.125Q505.79688 433.125 505.59375 433.3125Q505.39062 433.5 505.32812 433.89062L504.8125 433.79688Q504.90625 433.26562 505.25 432.98438Q505.59375 432.6875 506.09375 432.6875Q506.45312 432.6875 506.75 432.84375Q507.04688 432.98438 507.20312 433.25Q507.35938 433.51562 507.35938 433.79688Q507.35938 434.07812 507.20312 434.3125Q507.0625 434.53125 506.76562 434.67188Q507.14062 434.76562 507.34375 435.04688Q507.5625 435.3125 507.5625 435.73438Q507.5625 436.29688 507.15625 436.6875Q506.75 437.07812 506.125 437.07812Q505.54688 437.07812 505.17188 436.75Q504.8125 436.40625 504.75 435.85938ZM507.75 434.875Q507.75 434.125 507.90625 433.65625Q508.0625 433.1875 508.375 432.9375Q508.6875 432.6875 509.15625 432.6875Q509.5 432.6875 509.75 432.82812Q510.01562 432.96875 510.1875 433.23438Q510.35938 433.48438 510.45312 433.875Q510.54688 434.25 510.54688 434.875Q510.54688 435.64062 510.39062 436.10938Q510.23438 436.5625 509.92188 436.82812Q509.625 437.07812 509.15625 437.07812Q508.53125 437.07812 508.17188 436.625Q507.75 436.09375 507.75 434.875ZM508.29688 434.875Q508.29688 435.9375 508.53125 436.29688Q508.78125 436.64062 509.15625 436.64062Q509.51562 436.64062 509.76562 436.29688Q510.01562 435.9375 510.01562 434.875Q510.01562 433.82812 509.76562 433.48438Q509.51562 433.125 509.14062 433.125Q508.78125 433.125 508.5625 433.4375Q508.29688 433.82812 508.29688 434.875Z"
     fill-rule="nonzero"
     id="path33" />
  <path
     fill="#000000"
     d="M53.734375 44.916107L53.734375 28.494232L47.609375 28.494232L47.609375 26.306732L62.359375 26.306732L62.359375 28.494232L56.203125 28.494232L56.203125 44.916107L53.734375 44.916107ZM64.71875 44.916107L64.71875 26.306732L67.0 26.306732L67.0 32.978607Q68.59375 31.134857 71.03125 31.134857Q72.53125 31.134857 73.640625 31.728607Q74.75 32.306732 75.21875 33.353607Q75.703125 34.384857 75.703125 36.369232L75.703125 44.916107L73.40625 44.916107L73.40625 36.369232Q73.40625 34.650482 72.65625 33.884857Q71.921875 33.103607 70.5625 33.103607Q69.546875 33.103607 68.65625 33.634857Q67.765625 34.150482 67.375 35.056732Q67.0 35.947357 67.0 37.541107L67.0 44.916107L64.71875 44.916107ZM87.9375 40.572357L90.3125 40.869232Q89.75 42.931732 88.234375 44.087982Q86.71875 45.228607 84.375 45.228607Q81.421875 45.228607 79.6875 43.400482Q77.953125 41.572357 77.953125 38.291107Q77.953125 34.884857 79.703125 33.009857Q81.453125 31.134857 84.25 31.134857Q86.953125 31.134857 88.65625 32.978607Q90.375 34.806732 90.375 38.150482Q90.375 38.353607 90.375 38.759857L80.3125 38.759857Q80.4375 40.978607 81.5625 42.166107Q82.703125 43.337982 84.390625 43.337982Q85.640625 43.337982 86.53125 42.681732Q87.421875 42.025482 87.9375 40.572357ZM80.4375 36.884857L87.96875 36.884857Q87.8125 35.181732 87.109375 34.322357Q86.015625 33.009857 84.28125 33.009857Q82.703125 33.009857 81.625 34.072357Q80.5625 35.119232 80.4375 36.884857ZM97.96875 44.916107L105.109375 26.306732L107.765625 26.306732L115.375 44.916107L112.578125 44.916107L110.40625 39.275482L102.625 39.275482L100.578125 44.916107L97.96875 44.916107ZM103.328125 37.275482L109.640625 37.275482L107.703125 32.119232Q106.8125 29.775482 106.375 28.259857Q106.03125 30.056732 105.375 31.806732L103.328125 37.275482ZM120.453125 44.916107L115.328125 31.431732L117.75 31.431732L120.640625 39.509857Q121.109375 40.822357 121.5 42.228607Q121.8125 41.150482 122.34375 39.666107L125.34375 31.431732L127.703125 31.431732L122.59375 44.916107L120.453125 44.916107ZM138.9375 40.572357L141.3125 40.869232Q140.75 42.931732 139.23438 44.087982Q137.71875 45.228607 135.375 45.228607Q132.42188 45.228607 130.6875 43.400482Q128.95312 41.572357 128.95312 38.291107Q128.95312 34.884857 130.70312 33.009857Q132.45312 31.134857 135.25 31.134857Q137.95312 31.134857 139.65625 32.978607Q141.375 34.806732 141.375 38.150482Q141.375 38.353607 141.375 38.759857L131.3125 38.759857Q131.4375 40.978607 132.5625 42.166107Q133.70312 43.337982 135.39062 43.337982Q136.64062 43.337982 137.53125 42.681732Q138.42188 42.025482 138.9375 40.572357ZM131.4375 36.884857L138.96875 36.884857Q138.8125 35.181732 138.10938 34.322357Q137.01562 33.009857 135.28125 33.009857Q133.70312 33.009857 132.625 34.072357Q131.5625 35.119232 131.4375 36.884857ZM143.6875 44.916107L143.6875 31.431732L145.75 31.431732L145.75 33.478607Q146.53125 32.041107 147.1875 31.587982Q147.85938 31.134857 148.67188 31.134857Q149.82812 31.134857 151.01562 31.869232L150.23438 33.978607Q149.39062 33.494232 148.54688 33.494232Q147.79688 33.494232 147.20312 33.947357Q146.60938 34.384857 146.35938 35.197357Q145.96875 36.416107 145.96875 37.853607L145.96875 44.916107L143.6875 44.916107ZM161.51562 43.259857Q160.25 44.337982 159.0625 44.791107Q157.89062 45.228607 156.54688 45.228607Q154.32812 45.228607 153.125 44.150482Q151.9375 43.056732 151.9375 41.353607Q151.9375 40.369232 152.39062 39.556732Q152.84375 38.728607 153.5625 38.244232Q154.29688 37.744232 155.21875 37.494232Q155.89062 37.306732 157.25 37.150482Q160.01562 36.822357 161.32812 36.353607Q161.32812 35.884857 161.32812 35.759857Q161.32812 34.369232 160.6875 33.791107Q159.8125 33.025482 158.07812 33.025482Q156.46875 33.025482 155.70312 33.587982Q154.9375 34.150482 154.5625 35.587982L152.32812 35.275482Q152.64062 33.837982 153.32812 32.962982Q154.03125 32.087982 155.34375 31.619232Q156.67188 31.134857 158.42188 31.134857Q160.14062 31.134857 161.21875 31.541107Q162.29688 31.947357 162.79688 32.556732Q163.3125 33.166107 163.51562 34.119232Q163.625 34.697357 163.625 36.212982L163.625 39.259857Q163.625 42.447357 163.76562 43.291107Q163.92188 44.134857 164.35938 44.916107L161.96875 44.916107Q161.60938 44.197357 161.51562 43.259857ZM161.32812 38.150482Q160.07812 38.650482 157.59375 39.009857Q156.1875 39.212982 155.59375 39.478607Q155.01562 39.728607 154.6875 40.212982Q154.375 40.697357 154.375 41.291107Q154.375 42.212982 155.0625 42.822357Q155.76562 43.431732 157.09375 43.431732Q158.42188 43.431732 159.4375 42.853607Q160.46875 42.275482 160.95312 41.275482Q161.32812 40.494232 161.32812 38.994232L161.32812 38.150482ZM166.29688 46.041107L168.51562 46.369232Q168.65625 47.384857 169.29688 47.869232Q170.14062 48.494232 171.60938 48.494232Q173.20312 48.494232 174.0625 47.853607Q174.92188 47.228607 175.23438 46.087982Q175.40625 45.384857 175.39062 43.150482Q173.90625 44.916107 171.67188 44.916107Q168.89062 44.916107 167.35938 42.916107Q165.84375 40.900482 165.84375 38.103607Q165.84375 36.166107 166.53125 34.541107Q167.23438 32.900482 168.5625 32.025482Q169.89062 31.134857 171.67188 31.134857Q174.0625 31.134857 175.60938 33.056732L175.60938 31.431732L177.71875 31.431732L177.71875 43.087982Q177.71875 46.244232 177.07812 47.556732Q176.4375 48.869232 175.04688 49.619232Q173.65625 50.384857 171.625 50.384857Q169.21875 50.384857 167.73438 49.291107Q166.25 48.212982 166.29688 46.041107ZM168.1875 37.931732Q168.1875 40.587982 169.23438 41.806732Q170.29688 43.025482 171.875 43.025482Q173.45312 43.025482 174.51562 41.822357Q175.59375 40.603607 175.59375 38.009857Q175.59375 35.541107 174.48438 34.291107Q173.39062 33.025482 171.84375 33.025482Q170.3125 33.025482 169.25 34.259857Q168.1875 35.494232 168.1875 37.931732ZM190.9375 40.572357L193.3125 40.869232Q192.75 42.931732 191.23438 44.087982Q189.71875 45.228607 187.375 45.228607Q184.42188 45.228607 182.6875 43.400482Q180.95312 41.572357 180.95312 38.291107Q180.95312 34.884857 182.70312 33.009857Q184.45312 31.134857 187.25 31.134857Q189.95312 31.134857 191.65625 32.978607Q193.375 34.806732 193.375 38.150482Q193.375 38.353607 193.375 38.759857L183.3125 38.759857Q183.4375 40.978607 184.5625 42.166107Q185.70312 43.337982 187.39062 43.337982Q188.64062 43.337982 189.53125 42.681732Q190.42188 42.025482 190.9375 40.572357ZM183.4375 36.884857L190.96875 36.884857Q190.8125 35.181732 190.10938 34.322357Q189.01562 33.009857 187.28125 33.009857Q185.70312 33.009857 184.625 34.072357Q183.5625 35.119232 183.4375 36.884857ZM215.21875 26.306732L217.6875 26.306732L217.6875 37.056732Q217.6875 39.869232 217.04688 41.525482Q216.40625 43.166107 214.75 44.197357Q213.09375 45.228607 210.40625 45.228607Q207.79688 45.228607 206.125 44.337982Q204.46875 43.431732 203.75 41.728607Q203.04688 40.009857 203.04688 37.056732L203.04688 26.306732L205.5 26.306732L205.5 37.041107Q205.5 39.462982 205.95312 40.619232Q206.40625 41.759857 207.5 42.384857Q208.60938 43.009857 210.1875 43.009857Q212.90625 43.009857 214.0625 41.775482Q215.21875 40.541107 215.21875 37.041107L215.21875 26.306732ZM221.17188 38.931732L223.48438 38.728607Q223.65625 40.134857 224.25 41.025482Q224.85938 41.916107 226.125 42.478607Q227.40625 43.025482 228.98438 43.025482Q230.39062 43.025482 231.46875 42.603607Q232.5625 42.181732 233.07812 41.462982Q233.60938 40.728607 233.60938 39.869232Q233.60938 38.994232 233.09375 38.337982Q232.59375 37.681732 231.42188 37.228607Q230.67188 36.947357 228.10938 36.337982Q225.54688 35.712982 224.51562 35.166107Q223.1875 34.462982 222.53125 33.431732Q221.875 32.400482 221.875 31.119232Q221.875 29.712982 222.67188 28.494232Q223.48438 27.259857 225.01562 26.634857Q226.54688 25.994232 228.4375 25.994232Q230.5 25.994232 232.07812 26.666107Q233.65625 27.322357 234.5 28.619232Q235.35938 29.916107 235.42188 31.541107L233.0625 31.728607Q232.875 29.962982 231.76562 29.056732Q230.67188 28.150482 228.53125 28.150482Q226.29688 28.150482 225.26562 28.978607Q224.25 29.791107 224.25 30.947357Q224.25 31.947357 224.98438 32.603607Q225.6875 33.244232 228.6875 33.931732Q231.6875 34.603607 232.8125 35.119232Q234.4375 35.869232 235.20312 37.025482Q235.98438 38.166107 235.98438 39.666107Q235.98438 41.150482 235.125 42.462982Q234.28125 43.775482 232.6875 44.509857Q231.09375 45.228607 229.10938 45.228607Q226.57812 45.228607 224.85938 44.494232Q223.15625 43.759857 222.1875 42.291107Q221.21875 40.806732 221.17188 38.931732ZM246.07812 44.916107L246.07812 26.306732L248.54688 26.306732L248.54688 33.947357L258.21875 33.947357L258.21875 26.306732L260.6875 26.306732L260.6875 44.916107L258.21875 44.916107L258.21875 36.150482L248.54688 36.150482L248.54688 44.916107L246.07812 44.916107ZM263.85938 38.181732Q263.85938 34.431732 265.95312 32.619232Q267.6875 31.134857 270.1875 31.134857Q272.96875 31.134857 274.73438 32.962982Q276.5 34.775482 276.5 37.978607Q276.5 40.587982 275.71875 42.087982Q274.9375 43.572357 273.4375 44.400482Q271.95312 45.228607 270.1875 45.228607Q267.35938 45.228607 265.60938 43.416107Q263.85938 41.587982 263.85938 38.181732ZM266.21875 38.181732Q266.21875 40.759857 267.34375 42.056732Q268.46875 43.337982 270.1875 43.337982Q271.89062 43.337982 273.01562 42.041107Q274.14062 40.744232 274.14062 38.103607Q274.14062 35.603607 273.0 34.322357Q271.875 33.025482 270.1875 33.025482Q268.46875 33.025482 267.34375 34.306732Q266.21875 35.587982 266.21875 38.181732ZM287.54688 44.916107L287.54688 42.931732Q285.96875 45.228607 283.26562 45.228607Q282.07812 45.228607 281.04688 44.775482Q280.01562 44.306732 279.5 43.619232Q279.0 42.916107 278.79688 41.916107Q278.65625 41.244232 278.65625 39.791107L278.65625 31.431732L280.95312 31.431732L280.95312 38.916107Q280.95312 40.697357 281.09375 41.322357Q281.29688 42.228607 282.0 42.744232Q282.70312 43.259857 283.73438 43.259857Q284.75 43.259857 285.65625 42.728607Q286.5625 42.197357 286.9375 41.291107Q287.3125 40.384857 287.3125 38.650482L287.3125 31.431732L289.59375 31.431732L289.59375 44.916107L287.54688 44.916107ZM291.79688 40.884857L294.0625 40.541107Q294.25 41.900482 295.10938 42.619232Q295.98438 43.337982 297.54688 43.337982Q299.125 43.337982 299.89062 42.697357Q300.65625 42.056732 300.65625 41.197357Q300.65625 40.416107 299.96875 39.978607Q299.5 39.666107 297.64062 39.197357Q295.125 38.572357 294.15625 38.103607Q293.1875 37.634857 292.6875 36.822357Q292.1875 36.009857 292.1875 35.009857Q292.1875 34.119232 292.59375 33.353607Q293.0 32.572357 293.71875 32.072357Q294.25 31.681732 295.17188 31.416107Q296.09375 31.134857 297.14062 31.134857Q298.73438 31.134857 299.92188 31.587982Q301.125 32.041107 301.70312 32.822357Q302.28125 33.603607 302.48438 34.916107L300.25 35.212982Q300.10938 34.181732 299.375 33.603607Q298.64062 33.009857 297.3125 33.009857Q295.73438 33.009857 295.0625 33.525482Q294.39062 34.041107 294.39062 34.744232Q294.39062 35.197357 294.67188 35.541107Q294.95312 35.916107 295.54688 36.150482Q295.89062 36.275482 297.5625 36.744232Q299.98438 37.384857 300.9375 37.806732Q301.90625 38.212982 302.45312 39.009857Q303.0 39.791107 303.0 40.947357Q303.0 42.103607 302.32812 43.119232Q301.67188 44.119232 300.40625 44.681732Q299.15625 45.228607 297.5625 45.228607Q294.9375 45.228607 293.5625 44.134857Q292.1875 43.041107 291.79688 40.884857ZM314.9375 40.572357L317.3125 40.869232Q316.75 42.931732 315.23438 44.087982Q313.71875 45.228607 311.375 45.228607Q308.42188 45.228607 306.6875 43.400482Q304.95312 41.572357 304.95312 38.291107Q304.95312 34.884857 306.70312 33.009857Q308.45312 31.134857 311.25 31.134857Q313.95312 31.134857 315.65625 32.978607Q317.375 34.806732 317.375 38.150482Q317.375 38.353607 317.375 38.759857L307.3125 38.759857Q307.4375 40.978607 308.5625 42.166107Q309.70312 43.337982 311.39062 43.337982Q312.64062 43.337982 313.53125 42.681732Q314.42188 42.025482 314.9375 40.572357ZM307.4375 36.884857L314.96875 36.884857Q314.8125 35.181732 314.10938 34.322357Q313.01562 33.009857 311.28125 33.009857Q309.70312 33.009857 308.625 34.072357Q307.5625 35.119232 307.4375 36.884857ZM319.71875 44.916107L319.71875 26.306732L322.0 26.306732L322.0 32.978607Q323.59375 31.134857 326.03125 31.134857Q327.53125 31.134857 328.64062 31.728607Q329.75 32.306732 330.21875 33.353607Q330.70312 34.384857 330.70312 36.369232L330.70312 44.916107L328.40625 44.916107L328.40625 36.369232Q328.40625 34.650482 327.65625 33.884857Q326.92188 33.103607 325.5625 33.103607Q324.54688 33.103607 323.65625 33.634857Q322.76562 34.150482 322.375 35.056732Q322.0 35.947357 322.0 37.541107L322.0 44.916107L319.71875 44.916107ZM332.85938 38.181732Q332.85938 34.431732 334.95312 32.619232Q336.6875 31.134857 339.1875 31.134857Q341.96875 31.134857 343.73438 32.962982Q345.5 34.775482 345.5 37.978607Q345.5 40.587982 344.71875 42.087982Q343.9375 43.572357 342.4375 44.400482Q340.95312 45.228607 339.1875 45.228607Q336.35938 45.228607 334.60938 43.416107Q332.85938 41.587982 332.85938 38.181732ZM335.21875 38.181732Q335.21875 40.759857 336.34375 42.056732Q337.46875 43.337982 339.1875 43.337982Q340.89062 43.337982 342.01562 42.041107Q343.14062 40.744232 343.14062 38.103607Q343.14062 35.603607 342.0 34.322357Q340.875 33.025482 339.1875 33.025482Q337.46875 33.025482 336.34375 34.306732Q335.21875 35.587982 335.21875 38.181732ZM347.65625 44.916107L347.65625 26.306732L349.95312 26.306732L349.95312 44.916107L347.65625 44.916107ZM362.46875 44.916107L362.46875 43.212982Q361.17188 45.228607 358.6875 45.228607Q357.07812 45.228607 355.71875 44.337982Q354.375 43.447357 353.625 41.853607Q352.89062 40.259857 352.89062 38.181732Q352.89062 36.166107 353.5625 34.525482Q354.23438 32.884857 355.57812 32.009857Q356.92188 31.134857 358.59375 31.134857Q359.8125 31.134857 360.76562 31.650482Q361.71875 32.150482 362.3125 32.978607L362.3125 26.306732L364.57812 26.306732L364.57812 44.916107L362.46875 44.916107ZM355.23438 38.181732Q355.23438 40.775482 356.32812 42.056732Q357.42188 43.337982 358.90625 43.337982Q360.40625 43.337982 361.45312 42.119232Q362.5 40.884857 362.5 38.384857Q362.5 35.603607 361.42188 34.322357Q360.35938 33.025482 358.8125 33.025482Q357.28125 33.025482 356.25 34.275482Q355.23438 35.509857 355.23438 38.181732ZM388.21875 26.306732L390.6875 26.306732L390.6875 37.056732Q390.6875 39.869232 390.04688 41.525482Q389.40625 43.166107 387.75 44.197357Q386.09375 45.228607 383.40625 45.228607Q380.79688 45.228607 379.125 44.337982Q377.46875 43.431732 376.75 41.728607Q376.04688 40.009857 376.04688 37.056732L376.04688 26.306732L378.5 26.306732L378.5 37.041107Q378.5 39.462982 378.95312 40.619232Q379.40625 41.759857 380.5 42.384857Q381.60938 43.009857 383.1875 43.009857Q385.90625 43.009857 387.0625 41.775482Q388.21875 40.541107 388.21875 37.041107L388.21875 26.306732ZM393.79688 40.884857L396.0625 40.541107Q396.25 41.900482 397.10938 42.619232Q397.98438 43.337982 399.54688 43.337982Q401.125 43.337982 401.89062 42.697357Q402.65625 42.056732 402.65625 41.197357Q402.65625 40.416107 401.96875 39.978607Q401.5 39.666107 399.64062 39.197357Q397.125 38.572357 396.15625 38.103607Q395.1875 37.634857 394.6875 36.822357Q394.1875 36.009857 394.1875 35.009857Q394.1875 34.119232 394.59375 33.353607Q395.0 32.572357 395.71875 32.072357Q396.25 31.681732 397.17188 31.416107Q398.09375 31.134857 399.14062 31.134857Q400.73438 31.134857 401.92188 31.587982Q403.125 32.041107 403.70312 32.822357Q404.28125 33.603607 404.48438 34.916107L402.25 35.212982Q402.10938 34.181732 401.375 33.603607Q400.64062 33.009857 399.3125 33.009857Q397.73438 33.009857 397.0625 33.525482Q396.39062 34.041107 396.39062 34.744232Q396.39062 35.197357 396.67188 35.541107Q396.95312 35.916107 397.54688 36.150482Q397.89062 36.275482 399.5625 36.744232Q401.98438 37.384857 402.9375 37.806732Q403.90625 38.212982 404.45312 39.009857Q405.0 39.791107 405.0 40.947357Q405.0 42.103607 404.32812 43.119232Q403.67188 44.119232 402.40625 44.681732Q401.15625 45.228607 399.5625 45.228607Q396.9375 45.228607 395.5625 44.134857Q394.1875 43.041107 393.79688 40.884857ZM416.9375 40.572357L419.3125 40.869232Q418.75 42.931732 417.23438 44.087982Q415.71875 45.228607 413.375 45.228607Q410.42188 45.228607 408.6875 43.400482Q406.95312 41.572357 406.95312 38.291107Q406.95312 34.884857 408.70312 33.009857Q410.45312 31.134857 413.25 31.134857Q415.95312 31.134857 417.65625 32.978607Q419.375 34.806732 419.375 38.150482Q419.375 38.353607 419.375 38.759857L409.3125 38.759857Q409.4375 40.978607 410.5625 42.166107Q411.70312 43.337982 413.39062 43.337982Q414.64062 43.337982 415.53125 42.681732Q416.42188 42.025482 416.9375 40.572357ZM409.4375 36.884857L416.96875 36.884857Q416.8125 35.181732 416.10938 34.322357Q415.01562 33.009857 413.28125 33.009857Q411.70312 33.009857 410.625 34.072357Q409.5625 35.119232 409.4375 36.884857ZM420.79688 40.884857L423.0625 40.541107Q423.25 41.900482 424.10938 42.619232Q424.98438 43.337982 426.54688 43.337982Q428.125 43.337982 428.89062 42.697357Q429.65625 42.056732 429.65625 41.197357Q429.65625 40.416107 428.96875 39.978607Q428.5 39.666107 426.64062 39.197357Q424.125 38.572357 423.15625 38.103607Q422.1875 37.634857 421.6875 36.822357Q421.1875 36.009857 421.1875 35.009857Q421.1875 34.119232 421.59375 33.353607Q422.0 32.572357 422.71875 32.072357Q423.25 31.681732 424.17188 31.416107Q425.09375 31.134857 426.14062 31.134857Q427.73438 31.134857 428.92188 31.587982Q430.125 32.041107 430.70312 32.822357Q431.28125 33.603607 431.48438 34.916107L429.25 35.212982Q429.10938 34.181732 428.375 33.603607Q427.64062 33.009857 426.3125 33.009857Q424.73438 33.009857 424.0625 33.525482Q423.39062 34.041107 423.39062 34.744232Q423.39062 35.197357 423.67188 35.541107Q423.95312 35.916107 424.54688 36.150482Q424.89062 36.275482 426.5625 36.744232Q428.98438 37.384857 429.9375 37.806732Q430.90625 38.212982 431.45312 39.009857Q432.0 39.791107 432.0 40.947357Q432.0 42.103607 431.32812 43.119232Q430.67188 44.119232 429.40625 44.681732Q428.15625 45.228607 426.5625 45.228607Q423.9375 45.228607 422.5625 44.134857Q421.1875 43.041107 420.79688 40.884857ZM442.07812 44.916107L442.07812 26.306732L444.54688 26.306732L444.54688 33.947357L454.21875 33.947357L454.21875 26.306732L456.6875 26.306732L456.6875 44.916107L454.21875 44.916107L454.21875 36.150482L444.54688 36.150482L444.54688 44.916107L442.07812 44.916107ZM469.51562 43.259857Q468.25 44.337982 467.0625 44.791107Q465.89062 45.228607 464.54688 45.228607Q462.32812 45.228607 461.125 44.150482Q459.9375 43.056732 459.9375 41.353607Q459.9375 40.369232 460.39062 39.556732Q460.84375 38.728607 461.5625 38.244232Q462.29688 37.744232 463.21875 37.494232Q463.89062 37.306732 465.25 37.150482Q468.01562 36.822357 469.32812 36.353607Q469.32812 35.884857 469.32812 35.759857Q469.32812 34.369232 468.6875 33.791107Q467.8125 33.025482 466.07812 33.025482Q464.46875 33.025482 463.70312 33.587982Q462.9375 34.150482 462.5625 35.587982L460.32812 35.275482Q460.64062 33.837982 461.32812 32.962982Q462.03125 32.087982 463.34375 31.619232Q464.67188 31.134857 466.42188 31.134857Q468.14062 31.134857 469.21875 31.541107Q470.29688 31.947357 470.79688 32.556732Q471.3125 33.166107 471.51562 34.119232Q471.625 34.697357 471.625 36.212982L471.625 39.259857Q471.625 42.447357 471.76562 43.291107Q471.92188 44.134857 472.35938 44.916107L469.96875 44.916107Q469.60938 44.197357 469.51562 43.259857ZM469.32812 38.150482Q468.07812 38.650482 465.59375 39.009857Q464.1875 39.212982 463.59375 39.478607Q463.01562 39.728607 462.6875 40.212982Q462.375 40.697357 462.375 41.291107Q462.375 42.212982 463.0625 42.822357Q463.76562 43.431732 465.09375 43.431732Q466.42188 43.431732 467.4375 42.853607Q468.46875 42.275482 468.95312 41.275482Q469.32812 40.494232 469.32812 38.994232L469.32812 38.150482ZM474.65625 44.916107L474.65625 26.306732L476.95312 26.306732L476.95312 44.916107L474.65625 44.916107ZM481.26562 44.916107L481.26562 33.212982L479.23438 33.212982L479.23438 31.431732L481.26562 31.431732L481.26562 29.994232Q481.26562 28.634857 481.5 27.978607Q481.82812 27.087982 482.65625 26.541107Q483.5 25.994232 485.0 25.994232Q485.95312 25.994232 487.125 26.212982L486.78125 28.212982Q486.07812 28.087982 485.4375 28.087982Q484.39062 28.087982 483.95312 28.525482Q483.53125 28.962982 483.53125 30.181732L483.53125 31.431732L486.15625 31.431732L486.15625 33.212982L483.53125 33.212982L483.53125 44.916107L481.26562 44.916107ZM503.51562 43.259857Q502.25 44.337982 501.0625 44.791107Q499.89062 45.228607 498.54688 45.228607Q496.32812 45.228607 495.125 44.150482Q493.9375 43.056732 493.9375 41.353607Q493.9375 40.369232 494.39062 39.556732Q494.84375 38.728607 495.5625 38.244232Q496.29688 37.744232 497.21875 37.494232Q497.89062 37.306732 499.25 37.150482Q502.01562 36.822357 503.32812 36.353607Q503.32812 35.884857 503.32812 35.759857Q503.32812 34.369232 502.6875 33.791107Q501.8125 33.025482 500.07812 33.025482Q498.46875 33.025482 497.70312 33.587982Q496.9375 34.150482 496.5625 35.587982L494.32812 35.275482Q494.64062 33.837982 495.32812 32.962982Q496.03125 32.087982 497.34375 31.619232Q498.67188 31.134857 500.42188 31.134857Q502.14062 31.134857 503.21875 31.541107Q504.29688 31.947357 504.79688 32.556732Q505.3125 33.166107 505.51562 34.119232Q505.625 34.697357 505.625 36.212982L505.625 39.259857Q505.625 42.447357 505.76562 43.291107Q505.92188 44.134857 506.35938 44.916107L503.96875 44.916107Q503.60938 44.197357 503.51562 43.259857ZM503.32812 38.150482Q502.07812 38.650482 499.59375 39.009857Q498.1875 39.212982 497.59375 39.478607Q497.01562 39.728607 496.6875 40.212982Q496.375 40.697357 496.375 41.291107Q496.375 42.212982 497.0625 42.822357Q497.76562 43.431732 499.09375 43.431732Q500.42188 43.431732 501.4375 42.853607Q502.46875 42.275482 502.95312 41.275482Q503.32812 40.494232 503.32812 38.994232L503.32812 38.150482ZM507.79688 40.884857L510.0625 40.541107Q510.25 41.900482 511.10938 42.619232Q511.98438 43.337982 513.5469 43.337982Q515.125 43.337982 515.8906 42.697357Q516.65625 42.056732 516.65625 41.197357Q516.65625 40.416107 515.96875 39.978607Q515.5 39.666107 513.6406 39.197357Q511.125 38.572357 510.15625 38.103607Q509.1875 37.634857 508.6875 36.822357Q508.1875 36.009857 508.1875 35.009857Q508.1875 34.119232 508.59375 33.353607Q509.0 32.572357 509.71875 32.072357Q510.25 31.681732 511.17188 31.416107Q512.09375 31.134857 513.1406 31.134857Q514.7344 31.134857 515.9219 31.587982Q517.125 32.041107 517.7031 32.822357Q518.28125 33.603607 518.4844 34.916107L516.25 35.212982Q516.1094 34.181732 515.375 33.603607Q514.6406 33.009857 513.3125 33.009857Q511.73438 33.009857 511.0625 33.525482Q510.39062 34.041107 510.39062 34.744232Q510.39062 35.197357 510.67188 35.541107Q510.95312 35.916107 511.54688 36.150482Q511.89062 36.275482 513.5625 36.744232Q515.9844 37.384857 516.9375 37.806732Q517.90625 38.212982 518.4531 39.009857Q519.0 39.791107 519.0 40.947357Q519.0 42.103607 518.3281 43.119232Q517.6719 44.119232 516.40625 44.681732Q515.15625 45.228607 513.5625 45.228607Q510.9375 45.228607 509.5625 44.134857Q508.1875 43.041107 507.79688 40.884857Z"
     fill-rule="nonzero"
     id="path35" />
  <path
     fill="#000000"
     d="M29.9375 75.91611L29.9375 57.306732L33.640625 57.306732L38.046875 70.47861Q38.65625 72.32236 38.9375 73.24423Q39.25 72.22861 39.921875 70.25986L44.375 57.306732L47.6875 57.306732L47.6875 75.91611L45.3125 75.91611L45.3125 60.337982L39.90625 75.91611L37.6875 75.91611L32.296875 60.072357L32.296875 75.91611L29.9375 75.91611ZM59.515625 74.25986Q58.25 75.33798 57.0625 75.79111Q55.890625 76.22861 54.546875 76.22861Q52.328125 76.22861 51.125 75.15048Q49.9375 74.05673 49.9375 72.35361Q49.9375 71.36923 50.390625 70.55673Q50.84375 69.72861 51.5625 69.24423Q52.296875 68.74423 53.21875 68.49423Q53.890625 68.30673 55.25 68.15048Q58.015625 67.82236 59.328125 67.35361Q59.328125 66.88486 59.328125 66.75986Q59.328125 65.36923 58.6875 64.79111Q57.8125 64.02548 56.078125 64.02548Q54.46875 64.02548 53.703125 64.58798Q52.9375 65.15048 52.5625 66.58798L50.328125 66.27548Q50.640625 64.83798 51.328125 63.962982Q52.03125 63.087982 53.34375 62.619232Q54.671875 62.134857 56.421875 62.134857Q58.140625 62.134857 59.21875 62.541107Q60.296875 62.947357 60.796875 63.556732Q61.3125 64.16611 61.515625 65.11923Q61.625 65.69736 61.625 67.21298L61.625 70.25986Q61.625 73.44736 61.765625 74.29111Q61.921875 75.13486 62.359375 75.91611L59.96875 75.91611Q59.609375 75.19736 59.515625 74.25986ZM59.328125 69.15048Q58.078125 69.65048 55.59375 70.00986Q54.1875 70.21298 53.59375 70.47861Q53.015625 70.72861 52.6875 71.21298Q52.375 71.69736 52.375 72.29111Q52.375 73.21298 53.0625 73.82236Q53.765625 74.43173 55.09375 74.43173Q56.421875 74.43173 57.4375 73.85361Q58.46875 73.27548 58.953125 72.27548Q59.328125 71.49423 59.328125 69.99423L59.328125 69.15048ZM64.71875 75.91611L64.71875 62.431732L66.765625 62.431732L66.765625 64.35361Q68.25 62.134857 71.0625 62.134857Q72.28125 62.134857 73.296875 62.572357Q74.328125 63.009857 74.828125 63.728607Q75.34375 64.43173 75.546875 65.40048Q75.671875 66.04111 75.671875 67.61923L75.671875 75.91611L73.390625 75.91611L73.390625 67.71298Q73.390625 66.32236 73.125 65.63486Q72.859375 64.93173 72.171875 64.52548Q71.5 64.10361 70.578125 64.10361Q69.125 64.10361 68.0625 65.04111Q67.0 65.96298 67.0 68.55673L67.0 75.91611L64.71875 75.91611ZM78.609375 81.10361L78.359375 78.96298Q79.109375 79.16611 79.671875 79.16611Q80.421875 79.16611 80.875 78.91611Q81.34375 78.66611 81.640625 78.19736Q81.84375 77.85361 82.328125 76.49423Q82.390625 76.30673 82.53125 75.94736L77.421875 62.431732L79.875 62.431732L82.6875 70.24423Q83.234375 71.72861 83.671875 73.36923Q84.0625 71.79111 84.609375 70.29111L87.484375 62.431732L89.765625 62.431732L84.640625 76.15048Q83.8125 78.36923 83.359375 79.19736Q82.75 80.33798 81.953125 80.85361Q81.171875 81.38486 80.078125 81.38486Q79.421875 81.38486 78.609375 81.10361ZM102.734375 75.91611L102.734375 59.494232L96.609375 59.494232L96.609375 57.306732L111.359375 57.306732L111.359375 59.494232L105.203125 59.494232L105.203125 75.91611L102.734375 75.91611ZM112.859375 69.18173Q112.859375 65.43173 114.953125 63.619232Q116.6875 62.134857 119.1875 62.134857Q121.96875 62.134857 123.734375 63.962982Q125.5 65.77548 125.5 68.97861Q125.5 71.58798 124.71875 73.08798Q123.9375 74.57236 122.4375 75.40048Q120.953125 76.22861 119.1875 76.22861Q116.359375 76.22861 114.609375 74.41611Q112.859375 72.58798 112.859375 69.18173ZM115.21875 69.18173Q115.21875 71.75986 116.34375 73.05673Q117.46875 74.33798 119.1875 74.33798Q120.890625 74.33798 122.015625 73.04111Q123.140625 71.74423 123.140625 69.10361Q123.140625 66.60361 122.0 65.32236Q120.875 64.02548 119.1875 64.02548Q117.46875 64.02548 116.34375 65.30673Q115.21875 66.58798 115.21875 69.18173ZM126.859375 69.18173Q126.859375 65.43173 128.95312 63.619232Q130.6875 62.134857 133.1875 62.134857Q135.96875 62.134857 137.73438 63.962982Q139.5 65.77548 139.5 68.97861Q139.5 71.58798 138.71875 73.08798Q137.9375 74.57236 136.4375 75.40048Q134.95312 76.22861 133.1875 76.22861Q130.35938 76.22861 128.60938 74.41611Q126.859375 72.58798 126.859375 69.18173ZM129.21875 69.18173Q129.21875 71.75986 130.34375 73.05673Q131.46875 74.33798 133.1875 74.33798Q134.89062 74.33798 136.01562 73.04111Q137.14062 71.74423 137.14062 69.10361Q137.14062 66.60361 136.0 65.32236Q134.875 64.02548 133.1875 64.02548Q131.46875 64.02548 130.34375 65.30673Q129.21875 66.58798 129.21875 69.18173ZM146.70312 73.86923L147.03125 75.88486Q146.0625 76.08798 145.3125 76.08798Q144.0625 76.08798 143.375 75.69736Q142.6875 75.30673 142.40625 74.66611Q142.14062 74.02548 142.14062 71.96298L142.14062 64.21298L140.45312 64.21298L140.45312 62.431732L142.14062 62.431732L142.14062 59.087982L144.40625 57.728607L144.40625 62.431732L146.70312 62.431732L146.70312 64.21298L144.40625 64.21298L144.40625 72.08798Q144.40625 73.07236 144.51562 73.35361Q144.64062 73.63486 144.90625 73.80673Q145.1875 73.96298 145.70312 73.96298Q146.07812 73.96298 146.70312 73.86923ZM148.71875 75.91611L148.71875 57.306732L151.0 57.306732L151.0 63.978607Q152.59375 62.134857 155.03125 62.134857Q156.53125 62.134857 157.64062 62.728607Q158.75 63.306732 159.21875 64.35361Q159.70312 65.38486 159.70312 67.36923L159.70312 75.91611L157.40625 75.91611L157.40625 67.36923Q157.40625 65.65048 156.65625 64.88486Q155.92188 64.10361 154.5625 64.10361Q153.54688 64.10361 152.65625 64.63486Q151.76562 65.15048 151.375 66.05673Q151.0 66.94736 151.0 68.54111L151.0 75.91611L148.71875 75.91611ZM164.82812 75.91611L162.70312 75.91611L162.70312 57.306732L164.98438 57.306732L164.98438 63.947357Q166.4375 62.134857 168.6875 62.134857Q169.92188 62.134857 171.03125 62.634857Q172.14062 63.134857 172.85938 64.04111Q173.57812 64.94736 173.98438 66.22861Q174.39062 67.50986 174.39062 68.97861Q174.39062 72.43173 172.67188 74.33798Q170.96875 76.22861 168.5625 76.22861Q166.1875 76.22861 164.82812 74.22861L164.82812 75.91611ZM164.79688 69.07236Q164.79688 71.49423 165.45312 72.57236Q166.53125 74.33798 168.375 74.33798Q169.875 74.33798 170.96875 73.04111Q172.0625 71.74423 172.0625 69.16611Q172.0625 66.52548 171.01562 65.27548Q169.96875 64.00986 168.48438 64.00986Q166.98438 64.00986 165.89062 65.30673Q164.79688 66.60361 164.79688 69.07236ZM177.6875 75.91611L177.6875 62.431732L179.75 62.431732L179.75 64.47861Q180.53125 63.041107 181.1875 62.587982Q181.85938 62.134857 182.67188 62.134857Q183.82812 62.134857 185.01562 62.869232L184.23438 64.97861Q183.39062 64.49423 182.54688 64.49423Q181.79688 64.49423 181.20312 64.94736Q180.60938 65.38486 180.35938 66.19736Q179.96875 67.41611 179.96875 68.85361L179.96875 75.91611L177.6875 75.91611ZM195.54688 75.91611L195.54688 73.93173Q193.96875 76.22861 191.26562 76.22861Q190.07812 76.22861 189.04688 75.77548Q188.01562 75.30673 187.5 74.61923Q187.0 73.91611 186.79688 72.91611Q186.65625 72.24423 186.65625 70.79111L186.65625 62.431732L188.95312 62.431732L188.95312 69.91611Q188.95312 71.69736 189.09375 72.32236Q189.29688 73.22861 190.0 73.74423Q190.70312 74.25986 191.73438 74.25986Q192.75 74.25986 193.65625 73.72861Q194.5625 73.19736 194.9375 72.29111Q195.3125 71.38486 195.3125 69.65048L195.3125 62.431732L197.59375 62.431732L197.59375 75.91611L195.54688 75.91611ZM199.79688 71.88486L202.0625 71.54111Q202.25 72.90048 203.10938 73.61923Q203.98438 74.33798 205.54688 74.33798Q207.125 74.33798 207.89062 73.69736Q208.65625 73.05673 208.65625 72.19736Q208.65625 71.41611 207.96875 70.97861Q207.5 70.66611 205.64062 70.19736Q203.125 69.57236 202.15625 69.10361Q201.1875 68.63486 200.6875 67.82236Q200.1875 67.00986 200.1875 66.00986Q200.1875 65.11923 200.59375 64.35361Q201.0 63.572357 201.71875 63.072357Q202.25 62.681732 203.17188 62.416107Q204.09375 62.134857 205.14062 62.134857Q206.73438 62.134857 207.92188 62.587982Q209.125 63.041107 209.70312 63.822357Q210.28125 64.60361 210.48438 65.91611L208.25 66.21298Q208.10938 65.18173 207.375 64.60361Q206.64062 64.00986 205.3125 64.00986Q203.73438 64.00986 203.0625 64.52548Q202.39062 65.04111 202.39062 65.74423Q202.39062 66.19736 202.67188 66.54111Q202.95312 66.91611 203.54688 67.15048Q203.89062 67.27548 205.5625 67.74423Q207.98438 68.38486 208.9375 68.80673Q209.90625 69.21298 210.45312 70.00986Q211.0 70.79111 211.0 71.94736Q211.0 73.10361 210.32812 74.11923Q209.67188 75.11923 208.40625 75.68173Q207.15625 76.22861 205.5625 76.22861Q202.9375 76.22861 201.5625 75.13486Q200.1875 74.04111 199.79688 71.88486ZM213.71875 75.91611L213.71875 57.306732L216.0 57.306732L216.0 63.978607Q217.59375 62.134857 220.03125 62.134857Q221.53125 62.134857 222.64062 62.728607Q223.75 63.306732 224.21875 64.35361Q224.70312 65.38486 224.70312 67.36923L224.70312 75.91611L222.40625 75.91611L222.40625 67.36923Q222.40625 65.65048 221.65625 64.88486Q220.92188 64.10361 219.5625 64.10361Q218.54688 64.10361 217.65625 64.63486Q216.76562 65.15048 216.375 66.05673Q216.0 66.94736 216.0 68.54111L216.0 75.91611L213.71875 75.91611ZM236.9375 71.57236L239.3125 71.86923Q238.75 73.93173 237.23438 75.08798Q235.71875 76.22861 233.375 76.22861Q230.42188 76.22861 228.6875 74.40048Q226.95312 72.57236 226.95312 69.29111Q226.95312 65.88486 228.70312 64.00986Q230.45312 62.134857 233.25 62.134857Q235.95312 62.134857 237.65625 63.978607Q239.375 65.80673 239.375 69.15048Q239.375 69.35361 239.375 69.75986L229.3125 69.75986Q229.4375 71.97861 230.5625 73.16611Q231.70312 74.33798 233.39062 74.33798Q234.64062 74.33798 235.53125 73.68173Q236.42188 73.02548 236.9375 71.57236ZM229.4375 67.88486L236.96875 67.88486Q236.8125 66.18173 236.10938 65.32236Q235.01562 64.00986 233.28125 64.00986Q231.70312 64.00986 230.625 65.07236Q229.5625 66.11923 229.4375 67.88486ZM240.79688 71.88486L243.0625 71.54111Q243.25 72.90048 244.10938 73.61923Q244.98438 74.33798 246.54688 74.33798Q248.125 74.33798 248.89062 73.69736Q249.65625 73.05673 249.65625 72.19736Q249.65625 71.41611 248.96875 70.97861Q248.5 70.66611 246.64062 70.19736Q244.125 69.57236 243.15625 69.10361Q242.1875 68.63486 241.6875 67.82236Q241.1875 67.00986 241.1875 66.00986Q241.1875 65.11923 241.59375 64.35361Q242.0 63.572357 242.71875 63.072357Q243.25 62.681732 244.17188 62.416107Q245.09375 62.134857 246.14062 62.134857Q247.73438 62.134857 248.92188 62.587982Q250.125 63.041107 250.70312 63.822357Q251.28125 64.60361 251.48438 65.91611L249.25 66.21298Q249.10938 65.18173 248.375 64.60361Q247.64062 64.00986 246.3125 64.00986Q244.73438 64.00986 244.0625 64.52548Q243.39062 65.04111 243.39062 65.74423Q243.39062 66.19736 243.67188 66.54111Q243.95312 66.91611 244.54688 67.15048Q244.89062 67.27548 246.5625 67.74423Q248.98438 68.38486 249.9375 68.80673Q250.90625 69.21298 251.45312 70.00986Q252.0 70.79111 252.0 71.94736Q252.0 73.10361 251.32812 74.11923Q250.67188 75.11923 249.40625 75.68173Q248.15625 76.22861 246.5625 76.22861Q243.9375 76.22861 242.5625 75.13486Q241.1875 74.04111 240.79688 71.88486ZM270.51562 74.25986Q269.25 75.33798 268.0625 75.79111Q266.89062 76.22861 265.54688 76.22861Q263.32812 76.22861 262.125 75.15048Q260.9375 74.05673 260.9375 72.35361Q260.9375 71.36923 261.39062 70.55673Q261.84375 69.72861 262.5625 69.24423Q263.29688 68.74423 264.21875 68.49423Q264.89062 68.30673 266.25 68.15048Q269.01562 67.82236 270.32812 67.35361Q270.32812 66.88486 270.32812 66.75986Q270.32812 65.36923 269.6875 64.79111Q268.8125 64.02548 267.07812 64.02548Q265.46875 64.02548 264.70312 64.58798Q263.9375 65.15048 263.5625 66.58798L261.32812 66.27548Q261.64062 64.83798 262.32812 63.962982Q263.03125 63.087982 264.34375 62.619232Q265.67188 62.134857 267.42188 62.134857Q269.14062 62.134857 270.21875 62.541107Q271.29688 62.947357 271.79688 63.556732Q272.3125 64.16611 272.51562 65.11923Q272.625 65.69736 272.625 67.21298L272.625 70.25986Q272.625 73.44736 272.76562 74.29111Q272.92188 75.13486 273.35938 75.91611L270.96875 75.91611Q270.60938 75.19736 270.51562 74.25986ZM270.32812 69.15048Q269.07812 69.65048 266.59375 70.00986Q265.1875 70.21298 264.59375 70.47861Q264.01562 70.72861 263.6875 71.21298Q263.375 71.69736 263.375 72.29111Q263.375 73.21298 264.0625 73.82236Q264.76562 74.43173 266.09375 74.43173Q267.42188 74.43173 268.4375 73.85361Q269.46875 73.27548 269.95312 72.27548Q270.32812 71.49423 270.32812 69.99423L270.32812 69.15048ZM274.79688 71.88486L277.0625 71.54111Q277.25 72.90048 278.10938 73.61923Q278.98438 74.33798 280.54688 74.33798Q282.125 74.33798 282.89062 73.69736Q283.65625 73.05673 283.65625 72.19736Q283.65625 71.41611 282.96875 70.97861Q282.5 70.66611 280.64062 70.19736Q278.125 69.57236 277.15625 69.10361Q276.1875 68.63486 275.6875 67.82236Q275.1875 67.00986 275.1875 66.00986Q275.1875 65.11923 275.59375 64.35361Q276.0 63.572357 276.71875 63.072357Q277.25 62.681732 278.17188 62.416107Q279.09375 62.134857 280.14062 62.134857Q281.73438 62.134857 282.92188 62.587982Q284.125 63.041107 284.70312 63.822357Q285.28125 64.60361 285.48438 65.91611L283.25 66.21298Q283.10938 65.18173 282.375 64.60361Q281.64062 64.00986 280.3125 64.00986Q278.73438 64.00986 278.0625 64.52548Q277.39062 65.04111 277.39062 65.74423Q277.39062 66.19736 277.67188 66.54111Q277.95312 66.91611 278.54688 67.15048Q278.89062 67.27548 280.5625 67.74423Q282.98438 68.38486 283.9375 68.80673Q284.90625 69.21298 285.45312 70.00986Q286.0 70.79111 286.0 71.94736Q286.0 73.10361 285.32812 74.11923Q284.67188 75.11923 283.40625 75.68173Q282.15625 76.22861 280.5625 76.22861Q277.9375 76.22861 276.5625 75.13486Q275.1875 74.04111 274.79688 71.88486ZM296.14062 75.91611L296.14062 57.306732L308.6875 57.306732L308.6875 59.494232L298.59375 59.494232L298.59375 65.25986L307.32812 65.25986L307.32812 67.46298L298.59375 67.46298L298.59375 75.91611L296.14062 75.91611ZM311.65625 75.91611L311.65625 57.306732L313.95312 57.306732L313.95312 75.91611L311.65625 75.91611ZM317.60938 81.10361L317.35938 78.96298Q318.10938 79.16611 318.67188 79.16611Q319.42188 79.16611 319.875 78.91611Q320.34375 78.66611 320.64062 78.19736Q320.84375 77.85361 321.32812 76.49423Q321.39062 76.30673 321.53125 75.94736L316.42188 62.431732L318.875 62.431732L321.6875 70.24423Q322.23438 71.72861 322.67188 73.36923Q323.0625 71.79111 323.60938 70.29111L326.48438 62.431732L328.76562 62.431732L323.64062 76.15048Q322.8125 78.36923 322.35938 79.19736Q321.75 80.33798 320.95312 80.85361Q320.17188 81.38486 319.07812 81.38486Q318.42188 81.38486 317.60938 81.10361ZM336.73438 59.931732L336.73438 57.306732L339.01562 57.306732L339.01562 59.931732L336.73438 59.931732ZM336.73438 75.91611L336.73438 62.431732L339.01562 62.431732L339.01562 75.91611L336.73438 75.91611ZM342.71875 75.91611L342.71875 62.431732L344.76562 62.431732L344.76562 64.35361Q346.25 62.134857 349.0625 62.134857Q350.28125 62.134857 351.29688 62.572357Q352.32812 63.009857 352.82812 63.728607Q353.34375 64.43173 353.54688 65.40048Q353.67188 66.04111 353.67188 67.61923L353.67188 75.91611L351.39062 75.91611L351.39062 67.71298Q351.39062 66.32236 351.125 65.63486Q350.85938 64.93173 350.17188 64.52548Q349.5 64.10361 348.57812 64.10361Q347.125 64.10361 346.0625 65.04111Q345.0 65.96298 345.0 68.55673L345.0 75.91611L342.71875 75.91611ZM363.17188 69.93173L365.48438 69.72861Q365.65625 71.13486 366.25 72.02548Q366.85938 72.91611 368.125 73.47861Q369.40625 74.02548 370.98438 74.02548Q372.39062 74.02548 373.46875 73.60361Q374.5625 73.18173 375.07812 72.46298Q375.60938 71.72861 375.60938 70.86923Q375.60938 69.99423 375.09375 69.33798Q374.59375 68.68173 373.42188 68.22861Q372.67188 67.94736 370.10938 67.33798Q367.54688 66.71298 366.51562 66.16611Q365.1875 65.46298 364.53125 64.43173Q363.875 63.400482 363.875 62.119232Q363.875 60.712982 364.67188 59.494232Q365.48438 58.259857 367.01562 57.634857Q368.54688 56.994232 370.4375 56.994232Q372.5 56.994232 374.07812 57.666107Q375.65625 58.322357 376.5 59.619232Q377.35938 60.916107 377.42188 62.541107L375.0625 62.728607Q374.875 60.962982 373.76562 60.056732Q372.67188 59.150482 370.53125 59.150482Q368.29688 59.150482 367.26562 59.978607Q366.25 60.791107 366.25 61.947357Q366.25 62.947357 366.98438 63.603607Q367.6875 64.24423 370.6875 64.93173Q373.6875 65.60361 374.8125 66.11923Q376.4375 66.86923 377.20312 68.02548Q377.98438 69.16611 377.98438 70.66611Q377.98438 72.15048 377.125 73.46298Q376.28125 74.77548 374.6875 75.50986Q373.09375 76.22861 371.10938 76.22861Q368.57812 76.22861 366.85938 75.49423Q365.15625 74.75986 364.1875 73.29111Q363.21875 71.80673 363.17188 69.93173ZM380.71875 81.08798L380.71875 62.431732L382.79688 62.431732L382.79688 64.18173Q383.53125 63.150482 384.45312 62.650482Q385.39062 62.134857 386.70312 62.134857Q388.4375 62.134857 389.75 63.025482Q391.07812 63.900482 391.75 65.52548Q392.42188 67.15048 392.42188 69.07236Q392.42188 71.13486 391.67188 72.80673Q390.9375 74.46298 389.51562 75.35361Q388.10938 76.22861 386.54688 76.22861Q385.40625 76.22861 384.48438 75.74423Q383.57812 75.25986 383.0 74.52548L383.0 81.08798L380.71875 81.08798ZM382.78125 69.24423Q382.78125 71.85361 383.82812 73.10361Q384.89062 74.33798 386.39062 74.33798Q387.90625 74.33798 388.98438 73.05673Q390.07812 71.75986 390.07812 69.05673Q390.07812 66.47861 389.01562 65.19736Q387.96875 63.916107 386.48438 63.916107Q385.03125 63.916107 383.90625 65.29111Q382.78125 66.65048 382.78125 69.24423ZM404.51562 74.25986Q403.25 75.33798 402.0625 75.79111Q400.89062 76.22861 399.54688 76.22861Q397.32812 76.22861 396.125 75.15048Q394.9375 74.05673 394.9375 72.35361Q394.9375 71.36923 395.39062 70.55673Q395.84375 69.72861 396.5625 69.24423Q397.29688 68.74423 398.21875 68.49423Q398.89062 68.30673 400.25 68.15048Q403.01562 67.82236 404.32812 67.35361Q404.32812 66.88486 404.32812 66.75986Q404.32812 65.36923 403.6875 64.79111Q402.8125 64.02548 401.07812 64.02548Q399.46875 64.02548 398.70312 64.58798Q397.9375 65.15048 397.5625 66.58798L395.32812 66.27548Q395.64062 64.83798 396.32812 63.962982Q397.03125 63.087982 398.34375 62.619232Q399.67188 62.134857 401.42188 62.134857Q403.14062 62.134857 404.21875 62.541107Q405.29688 62.947357 405.79688 63.556732Q406.3125 64.16611 406.51562 65.11923Q406.625 65.69736 406.625 67.21298L406.625 70.25986Q406.625 73.44736 406.76562 74.29111Q406.92188 75.13486 407.35938 75.91611L404.96875 75.91611Q404.60938 75.19736 404.51562 74.25986ZM404.32812 69.15048Q403.07812 69.65048 400.59375 70.00986Q399.1875 70.21298 398.59375 70.47861Q398.01562 70.72861 397.6875 71.21298Q397.375 71.69736 397.375 72.29111Q397.375 73.21298 398.0625 73.82236Q398.76562 74.43173 400.09375 74.43173Q401.42188 74.43173 402.4375 73.85361Q403.46875 73.27548 403.95312 72.27548Q404.32812 71.49423 404.32812 69.99423L404.32812 69.15048ZM418.51562 70.97861L420.76562 71.27548Q420.39062 73.58798 418.875 74.91611Q417.35938 76.22861 415.14062 76.22861Q412.375 76.22861 410.6875 74.41611Q409.01562 72.60361 409.01562 69.22861Q409.01562 67.04111 409.73438 65.40048Q410.46875 63.759857 411.9375 62.947357Q413.42188 62.134857 415.15625 62.134857Q417.35938 62.134857 418.75 63.244232Q420.15625 64.35361 420.54688 66.40048L418.32812 66.74423Q418.0 65.38486 417.1875 64.69736Q416.39062 64.00986 415.25 64.00986Q413.51562 64.00986 412.4375 65.24423Q411.35938 66.47861 411.35938 69.16611Q411.35938 71.88486 412.40625 73.11923Q413.45312 74.33798 415.125 74.33798Q416.46875 74.33798 417.35938 73.52548Q418.26562 72.69736 418.51562 70.97861ZM431.9375 71.57236L434.3125 71.86923Q433.75 73.93173 432.23438 75.08798Q430.71875 76.22861 428.375 76.22861Q425.42188 76.22861 423.6875 74.40048Q421.95312 72.57236 421.95312 69.29111Q421.95312 65.88486 423.70312 64.00986Q425.45312 62.134857 428.25 62.134857Q430.95312 62.134857 432.65625 63.978607Q434.375 65.80673 434.375 69.15048Q434.375 69.35361 434.375 69.75986L424.3125 69.75986Q424.4375 71.97861 425.5625 73.16611Q426.70312 74.33798 428.39062 74.33798Q429.64062 74.33798 430.53125 73.68173Q431.42188 73.02548 431.9375 71.57236ZM424.4375 67.88486L431.96875 67.88486Q431.8125 66.18173 431.10938 65.32236Q430.01562 64.00986 428.28125 64.00986Q426.70312 64.00986 425.625 65.07236Q424.5625 66.11923 424.4375 67.88486ZM441.96875 75.91611L449.10938 57.306732L451.76562 57.306732L459.375 75.91611L456.57812 75.91611L454.40625 70.27548L446.625 70.27548L444.57812 75.91611L441.96875 75.91611ZM447.32812 68.27548L453.64062 68.27548L451.70312 63.119232Q450.8125 60.775482 450.375 59.259857Q450.03125 61.056732 449.375 62.806732L447.32812 68.27548ZM460.71875 75.91611L460.71875 62.431732L462.76562 62.431732L462.76562 64.35361Q464.25 62.134857 467.0625 62.134857Q468.28125 62.134857 469.29688 62.572357Q470.32812 63.009857 470.82812 63.728607Q471.34375 64.43173 471.54688 65.40048Q471.67188 66.04111 471.67188 67.61923L471.67188 75.91611L469.39062 75.91611L469.39062 67.71298Q469.39062 66.32236 469.125 65.63486Q468.85938 64.93173 468.17188 64.52548Q467.5 64.10361 466.57812 64.10361Q465.125 64.10361 464.0625 65.04111Q463.0 65.96298 463.0 68.55673L463.0 75.91611L460.71875 75.91611ZM474.71875 75.91611L474.71875 62.431732L476.76562 62.431732L476.76562 64.35361Q478.25 62.134857 481.0625 62.134857Q482.28125 62.134857 483.29688 62.572357Q484.32812 63.009857 484.82812 63.728607Q485.34375 64.43173 485.54688 65.40048Q485.67188 66.04111 485.67188 67.61923L485.67188 75.91611L483.39062 75.91611L483.39062 67.71298Q483.39062 66.32236 483.125 65.63486Q482.85938 64.93173 482.17188 64.52548Q481.5 64.10361 480.57812 64.10361Q479.125 64.10361 478.0625 65.04111Q477.0 65.96298 477.0 68.55673L477.0 75.91611L474.71875 75.91611ZM497.54688 75.91611L497.54688 73.93173Q495.96875 76.22861 493.26562 76.22861Q492.07812 76.22861 491.04688 75.77548Q490.01562 75.30673 489.5 74.61923Q489.0 73.91611 488.79688 72.91611Q488.65625 72.24423 488.65625 70.79111L488.65625 62.431732L490.95312 62.431732L490.95312 69.91611Q490.95312 71.69736 491.09375 72.32236Q491.29688 73.22861 492.0 73.74423Q492.70312 74.25986 493.73438 74.25986Q494.75 74.25986 495.65625 73.72861Q496.5625 73.19736 496.9375 72.29111Q497.3125 71.38486 497.3125 69.65048L497.3125 62.431732L499.59375 62.431732L499.59375 75.91611L497.54688 75.91611ZM511.51562 74.25986Q510.25 75.33798 509.0625 75.79111Q507.89062 76.22861 506.54688 76.22861Q504.32812 76.22861 503.125 75.15048Q501.9375 74.05673 501.9375 72.35361Q501.9375 71.36923 502.39062 70.55673Q502.84375 69.72861 503.5625 69.24423Q504.29688 68.74423 505.21875 68.49423Q505.89062 68.30673 507.25 68.15048Q510.01562 67.82236 511.32812 67.35361Q511.32812 66.88486 511.32812 66.75986Q511.32812 65.36923 510.6875 64.79111Q509.8125 64.02548 508.07812 64.02548Q506.46875 64.02548 505.70312 64.58798Q504.9375 65.15048 504.5625 66.58798L502.32812 66.27548Q502.64062 64.83798 503.32812 63.962982Q504.03125 63.087982 505.34375 62.619232Q506.67188 62.134857 508.42188 62.134857Q510.14062 62.134857 511.21875 62.541107Q512.2969 62.947357 512.7969 63.556732Q513.3125 64.16611 513.5156 65.11923Q513.625 65.69736 513.625 67.21298L513.625 70.25986Q513.625 73.44736 513.7656 74.29111Q513.9219 75.13486 514.3594 75.91611L511.96875 75.91611Q511.60938 75.19736 511.51562 74.25986ZM511.32812 69.15048Q510.07812 69.65048 507.59375 70.00986Q506.1875 70.21298 505.59375 70.47861Q505.01562 70.72861 504.6875 71.21298Q504.375 71.69736 504.375 72.29111Q504.375 73.21298 505.0625 73.82236Q505.76562 74.43173 507.09375 74.43173Q508.42188 74.43173 509.4375 73.85361Q510.46875 73.27548 510.95312 72.27548Q511.32812 71.49423 511.32812 69.99423L511.32812 69.15048ZM516.65625 75.91611L516.65625 57.306732L518.9531 57.306732L518.9531 75.91611L516.65625 75.91611ZM522.65625 75.91611L522.65625 57.306732L524.9531 57.306732L524.9531 75.91611L522.65625 75.91611ZM528.6094 81.10361L528.3594 78.96298Q529.1094 79.16611 529.6719 79.16611Q530.4219 79.16611 530.875 78.91611Q531.34375 78.66611 531.6406 78.19736Q531.84375 77.85361 532.3281 76.49423Q532.3906 76.30673 532.53125 75.94736L527.4219 62.431732L529.875 62.431732L532.6875 70.24423Q533.2344 71.72861 533.6719 73.36923Q534.0625 71.79111 534.6094 70.29111L537.4844 62.431732L539.7656 62.431732L534.6406 76.15048Q533.8125 78.36923 533.3594 79.19736Q532.75 80.33798 531.9531 80.85361Q531.1719 81.38486 530.0781 81.38486Q529.4219 81.38486 528.6094 81.10361Z"
     fill-rule="nonzero"
     id="path37" />
</svg>
